<?xml version="1.0" standalone="no"?>
<!DOCTYPE svg PUBLIC "-//W3C//DTD SVG 20010904//EN"
 "http://www.w3.org/TR/2001/REC-SVG-20010904/DTD/svg10.dtd">
<svg version="1.0" xmlns="http://www.w3.org/2000/svg"
 width="851.000000pt" height="851.000000pt" viewBox="0 0 851.000000 851.000000"
 preserveAspectRatio="xMidYMid meet">
<metadata>
Created by potrace 1.14, written by Peter Selinger 2001-2017
</metadata>
<g transform="translate(0.000000,851.000000) scale(0.100000,-0.100000)"
fill="#000000" stroke="none">
<path d="M3775 7789 c-136 -129 -203 -392 -178 -709 5 -69 9 -126 8 -127 0 -1
-61 68 -135 154 -74 85 -148 166 -163 179 -35 29 -76 31 -110 4 -49 -39 -46
-60 52 -301 50 -123 91 -226 91 -229 0 -3 -64 -11 -142 -18 -175 -15 -258 -32
-413 -83 -297 -99 -567 -276 -809 -530 -213 -224 -346 -482 -408 -791 -19 -96
-23 -144 -22 -318 0 -195 5 -243 40 -417 6 -31 5 -32 -77 -73 -115 -58 -163
-92 -244 -175 -83 -84 -136 -171 -170 -278 -66 -206 -34 -364 103 -509 90 -95
171 -146 507 -315 318 -161 476 -260 601 -377 145 -135 222 -253 409 -627
l104 -207 -59 -6 c-132 -15 -308 -78 -432 -154 -225 -137 -409 -358 -528 -632
-18 -41 -35 -78 -39 -82 -3 -4 -33 2 -66 13 -202 67 -424 101 -660 101 -334
-1 -606 -64 -890 -207 l-140 -70 -3 -278 -2 -278 67 54 c191 154 405 254 657
309 87 19 131 22 316 22 186 0 229 -3 319 -22 136 -30 276 -75 380 -123 118
-55 153 -63 212 -49 65 16 120 57 146 111 12 24 33 89 48 145 15 56 48 146 75
202 106 221 230 356 402 437 99 47 173 64 300 72 l106 6 100 -199 c309 -610
572 -907 890 -1004 150 -46 314 -11 487 102 233 153 434 423 686 921 l90 177
129 0 c162 0 263 -14 360 -50 256 -93 450 -342 548 -702 34 -124 61 -166 129
-199 74 -36 129 -31 243 20 120 55 271 105 397 133 84 19 129 22 318 23 195 0
232 -3 324 -23 272 -61 505 -183 696 -364 l85 -80 0 294 0 294 -87 51 c-505
299 -1103 361 -1668 174 -33 -11 -63 -17 -66 -13 -4 4 -23 45 -43 92 -75 174
-212 371 -339 485 -195 176 -450 284 -709 302 -54 3 -98 8 -98 10 0 11 100
214 175 354 116 217 178 311 267 405 152 160 312 264 693 453 132 66 281 146
330 179 267 178 342 393 235 670 -48 124 -130 231 -248 322 l-32 25 34 105
c179 546 -30 1274 -474 1657 -319 275 -766 429 -1303 450 l-167 6 34 41 c80
97 300 251 446 311 78 31 110 64 110 109 0 57 -37 83 -128 92 -104 9 -318 -1
-420 -21 -96 -18 -231 -64 -315 -106 l-57 -30 13 33 c8 18 48 95 90 170 43 75
77 144 77 153 0 34 -30 73 -65 85 -42 14 -148 0 -224 -29 -81 -30 -173 -103
-250 -196 -27 -33 -32 -36 -26 -15 26 94 91 197 182 288 56 56 63 67 63 103 0
51 -35 89 -80 89 -48 0 -177 -46 -251 -90 -88 -52 -161 -119 -221 -204 l-50
-71 6 140 c4 77 9 163 13 192 5 48 4 54 -25 82 -48 49 -90 44 -157 -20z m-642
-1924 c131 -34 251 -118 320 -223 65 -98 89 -170 94 -282 9 -168 -40 -296
-161 -416 -187 -186 -457 -215 -682 -73 -183 116 -284 351 -241 561 43 212
206 384 410 434 72 17 192 17 260 -1z m2269 4 c282 -58 481 -355 425 -634 -79
-389 -508 -577 -835 -366 -157 102 -240 247 -250 438 -4 91 -2 112 21 186 85
271 361 434 639 376z m-1091 -909 c163 -50 289 -186 393 -422 60 -137 71 -141
351 -113 359 35 812 29 1112 -15 497 -73 769 -248 781 -505 3 -64 1 -73 -25
-107 -50 -67 -143 -126 -418 -265 -293 -148 -431 -226 -540 -306 -182 -134
-307 -268 -420 -449 -68 -108 -280 -524 -500 -983 -269 -559 -452 -842 -641
-995 -154 -123 -252 -144 -378 -81 -169 86 -337 281 -521 606 -64 111 -122
227 -472 945 -227 464 -320 615 -478 775 -172 173 -336 280 -740 483 -425 213
-490 274 -450 426 54 205 231 335 569 416 157 38 290 56 506 71 184 12 572 7
755 -11 55 -5 147 -13 206 -16 l105 -7 36 32 c25 21 46 56 68 112 82 203 222
352 380 406 87 30 231 31 321 3z"/>
<path d="M2903 5646 c-158 -50 -257 -217 -224 -378 26 -122 119 -222 238 -254
113 -30 221 -4 308 77 65 60 97 127 103 216 6 98 -1 116 -31 72 -12 -18 -37
-43 -54 -55 -129 -86 -302 28 -278 183 6 39 16 57 54 95 27 26 46 50 43 53
-10 10 -117 4 -159 -9z"/>
<path d="M5227 5654 c-3 -3 11 -20 30 -37 37 -33 72 -97 73 -132 0 -45 -24
-102 -59 -136 -83 -84 -211 -70 -278 30 -30 44 -37 26 -31 -72 8 -124 73 -218
187 -274 47 -23 69 -28 136 -28 91 0 161 26 227 84 47 41 95 136 103 205 19
148 -85 308 -227 351 -51 15 -149 21 -161 9z"/>
<path d="M3836 4679 c-60 -17 -116 -101 -132 -197 -6 -39 -5 -42 21 -52 16 -6
73 -9 129 -8 l101 3 -1 80 c-3 135 -43 195 -118 174z"/>
<path d="M4419 4676 c-40 -19 -62 -79 -63 -170 l-1 -81 92 -3 c51 -1 107 1
125 6 31 8 33 11 31 49 -2 53 -37 134 -72 167 -36 34 -81 48 -112 32z"/>
<path d="M1771 4190 c-84 -18 -125 -85 -95 -159 18 -45 36 -58 124 -86 96 -31
284 -134 395 -217 196 -147 389 -357 533 -580 98 -152 216 -370 429 -793 227
-452 317 -617 418 -770 167 -252 325 -394 500 -447 60 -18 76 -20 122 -10 113
24 259 115 359 225 166 181 292 393 594 997 188 376 286 560 382 719 264 437
637 766 1005 885 69 23 103 63 103 122 0 98 -81 132 -290 120 -422 -25 -1167
-252 -2025 -616 l-169 -72 -76 32 c-752 321 -1460 557 -1889 629 -142 24 -355
35 -420 21z m849 -366 c381 -109 958 -321 1371 -504 159 -70 163 -70 407 34
370 157 691 279 1027 389 191 63 495 150 502 144 1 -2 -19 -20 -46 -40 -81
-62 -311 -306 -391 -415 -67 -91 -176 -259 -221 -340 l-17 -30 -93 35 c-339
128 -669 145 -935 49 l-70 -26 -54 21 c-129 49 -217 63 -390 63 -131 -1 -187
-5 -270 -23 -84 -17 -286 -80 -370 -114 -11 -5 -34 26 -86 116 -106 181 -240
354 -393 508 -75 75 -154 150 -176 168 -40 32 -40 32 -10 25 17 -3 113 -30
215 -60z"/>
</g>
</svg>
